<svg width="51" height="51" viewBox="0 0 51 51" fill="none" xmlns="http://www.w3.org/2000/svg">
<mask id="path-1-inside-1_3262_16124" fill="white">
<path d="M50 25.5C50 39.031 39.031 50 25.5 50C11.969 50 1 39.031 1 25.5C1 11.969 11.969 1 25.5 1C39.031 1 50 11.969 50 25.5ZM12.025 25.5C12.025 32.942 18.058 38.975 25.5 38.975C32.942 38.975 38.975 32.942 38.975 25.5C38.975 18.058 32.942 12.025 25.5 12.025C18.058 12.025 12.025 18.058 12.025 25.5Z"/>
</mask>
<path d="M50 25.5C50 39.031 39.031 50 25.5 50C11.969 50 1 39.031 1 25.5C1 11.969 11.969 1 25.5 1C39.031 1 50 11.969 50 25.5ZM12.025 25.5C12.025 32.942 18.058 38.975 25.5 38.975C32.942 38.975 38.975 32.942 38.975 25.5C38.975 18.058 32.942 12.025 25.5 12.025C18.058 12.025 12.025 18.058 12.025 25.5Z" fill="white" stroke="black" stroke-width="2" mask="url(#path-1-inside-1_3262_16124)"/>
<path d="M49 25.5C49 28.5861 48.3922 31.6419 47.2112 34.4931C46.0302 37.3442 44.2992 39.9348 42.117 42.117C39.9348 44.2992 37.3442 46.0302 34.4931 47.2112C31.6419 48.3922 28.5861 49 25.5 49L25.5 40.07C27.4134 40.07 29.308 39.6931 31.0757 38.9609C32.8434 38.2287 34.4496 37.1555 35.8025 35.8025C37.1555 34.4496 38.2287 32.8434 38.9609 31.0757C39.6931 29.308 40.07 27.4134 40.07 25.5H49Z" fill="#88F98C"/>
<path d="M25.5841 2.04217C28.6702 2.04769 31.725 2.66101 34.574 3.8471C37.423 5.03319 40.0105 6.76883 42.1888 8.95491C44.3671 11.141 46.0934 13.7347 47.2693 16.588C48.4452 19.4412 49.0475 22.4982 49.042 25.5842L40.112 25.5682C40.1155 23.6549 39.742 21.7596 39.0129 19.9905C38.2839 18.2215 37.2136 16.6134 35.863 15.2581C34.5125 13.9027 32.9082 12.8266 31.1418 12.0912C29.3755 11.3558 27.4815 10.9756 25.5681 10.9722L25.5841 2.04217Z" fill="#FFFA9C"/>
<path d="M2.01726 25.5007C2.01952 22.4146 2.62961 19.3592 3.81269 16.5089C4.99577 13.6586 6.72866 11.0693 8.91244 8.88872C11.0962 6.70814 13.6881 4.97905 16.5401 3.80015C19.3921 2.62126 22.4484 2.01566 25.5345 2.01792L25.5279 10.9479C23.6146 10.9465 21.7197 11.322 19.9514 12.0529C18.1832 12.7838 16.5762 13.8559 15.2223 15.2078C13.8683 16.5598 12.7939 18.1652 12.0604 19.9323C11.3269 21.6995 10.9487 23.5939 10.9473 25.5072L2.01726 25.5007Z" fill="#FF7373"/>
<path d="M25.5001 49.0108C22.414 49.0094 19.3584 48.4001 16.5078 47.2178C13.6572 46.0356 11.0674 44.3034 8.88619 42.1202C6.70501 39.937 4.9752 37.3456 3.79551 34.4939C2.61582 31.6422 2.00937 28.5861 2.01078 25.5001L10.9408 25.5041C10.9399 27.4175 11.3159 29.3123 12.0473 31.0803C12.7787 32.8484 13.8512 34.4551 15.2035 35.8086C16.5559 37.1622 18.1616 38.2361 19.9289 38.9692C21.6963 39.7022 23.5908 40.0799 25.5041 40.0808L25.5001 49.0108Z" fill="#A0C8FF"/>
<rect x="19.5" y="42.5" width="10" height="3" rx="1.5" fill="white" stroke="black"/>
<rect x="-0.0570962" y="0.724294" width="7.65118" height="2.81166" rx="1.40583" transform="matrix(0.627902 0.778293 -0.742094 0.670296 25.8522 38.2832)" fill="white" stroke="black"/>
<rect x="0.683861" y="0.0684323" width="7.56478" height="2.85002" rx="1.42501" transform="matrix(0.756188 -0.654354 0.611533 0.791219 21.703 48.0008)" fill="white" stroke="black"/>
<rect x="42.614" y="32.3504" width="10" height="3" rx="1.5" transform="rotate(-90.5813 42.614 32.3504)" fill="white" stroke="black"/>
<rect x="0.724836" y="0.0497453" width="7.65118" height="2.81166" rx="1.40583" transform="matrix(0.771883 -0.635765 0.67779 0.735256 38.1863 27.0345)" fill="white" stroke="black"/>
<rect x="0.061491" y="-0.68452" width="7.56478" height="2.85002" rx="1.42501" transform="matrix(-0.661992 -0.749511 0.784974 -0.619529 48.2704 29.1582)" fill="white" stroke="black"/>
<rect x="31.4313" y="8.09234" width="10" height="3" rx="1.5" transform="rotate(178.831 31.4313 8.09234)" fill="white" stroke="black"/>
<rect x="0.0423091" y="-0.725308" width="7.65118" height="2.81166" rx="1.40583" transform="matrix(-0.643648 -0.765322 0.728266 -0.685295 26.2853 11.521)" fill="white" stroke="black"/>
<rect x="-0.685115" y="-0.0544677" width="7.56478" height="2.85002" rx="1.42501" transform="matrix(-0.742683 0.669644 -0.627547 -0.778579 28.0219 3.45956)" fill="white" stroke="black"/>
<rect x="8.08999" y="19.5528" width="10" height="3" rx="1.5" transform="rotate(89.3161 8.08999 19.5528)" fill="white" stroke="black"/>
<rect x="-0.724924" y="-0.048447" width="7.65118" height="2.81166" rx="1.40583" transform="matrix(-0.770743 0.637146 -0.679106 -0.73404 11.3436 25.7138)" fill="white" stroke="black"/>
<rect x="-0.060265" y="0.684629" width="7.56478" height="2.85002" rx="1.42501" transform="matrix(0.663333 0.748324 -0.783863 0.620934 3.59254 21.996)" fill="white" stroke="black"/>
</svg>
